<?xml version="1.0" encoding="UTF-8" standalone="no"?>
<svg width="300px" height="300px" viewBox="0 0 300 300" version="1.1" xmlns="http://www.w3.org/2000/svg" xmlns:xlink="http://www.w3.org/1999/xlink">
  <g id="Logo" transform="translate(0.770000, 0.000000)">
    <path d="M214.314991,14.4488651 C194.823505,5.18428345 173.01718,0 150,0 C109.846784,0 73.3784911,15.7770277 46.4560691,41.470134 C17.8330899,68.7861475 264.976651,38.5290758 214.314991,14.4488651 Z" id="Melon" fill="#FCC397"></path>
    <path d="M267.184919,56.3551493 C267.356272,56.5692972 254.950736,73.14983 217.666247,77.8569514 C142.410047,87.357955 13.2076983,88.3624948 13.4024343,87.9345926 C21.3950437,70.3720741 32.6750991,54.6217501 46.4564643,41.4697568 C62.694217,46.5395391 80.3683401,47.8028951 97.0860518,44.7221069 C124.690045,39.6721069 149.249113,23.7221069 176.553606,17.2221069 C188.673205,14.3105291 201.877181,13.4600632 214.312978,14.4479084 C234.977085,24.2694719 253.039549,38.6770326 267.184919,56.3551493 Z" id="Peach" fill="#FC9F95"></path>
    <path d="M298.170332,126.502977 C298.265397,127.107254 128.467702,143.067908 45.737916,138.415831 C18.783714,136.900138 2.87650848,120.603539 3.05893919,119.713759 C5.33236012,108.625465 8.8293322,97.9832075 13.4025896,87.9342513 C37.3035354,74.8519641 65.4228952,67.3020518 92.6893669,67.6 C126.882379,67.95 160.426472,79.35 194.619483,78.5 C220.012733,77.8541749 245.607775,69.7494779 267.18465,56.3548125 C283.086079,76.22744 294.037526,100.233047 298.170332,126.502977 Z" id="Sexy-Salmon" fill="#F77C88"></path>
    <path d="M300,150 C300,150.831128 299.979773,152.488595 299.979773,152.488595 C299.979773,152.488595 252.818334,164.383893 192.080363,163.674209 C107.007657,162.680189 0.00333776824,148.957901 0.00546015999,148.706611 C0.0895193637,138.754053 1.14285203,129.032674 3.07567272,119.632259 C23.4578026,132.208475 48.1761821,138.367786 71.9674146,135.775305 C90.8858838,133.725305 108.855934,126.725305 126.376732,119.275305 C143.897531,111.825305 161.318496,103.825305 179.837631,99.5253053 C207.04229,93.2253053 236.143787,95.4253053 262.150443,105.675305 C274.802224,110.664623 287.35566,117.837598 298.167855,126.487238 C299.373838,134.147675 300,142.000713 300,150 Z" id="Flamingo" fill="#F25192"></path>
    <path d="M129.886396,198.70373 C84.8829168,207.014498 7.65146215,197.428843 7.45683674,196.836157 C2.61764281,182.099549 0,166.355466 0,150 C0,149.568081 0.00182552912,149.136589 0.00546929256,148.70553 C6.8373527,143.288188 14.8174542,138.457692 22.6077133,134.704234 C41.8756001,125.354234 63.7391609,121.454234 85.0536367,123.554234 C106.118529,125.654234 126.235001,133.454234 145.702555,141.854234 C162.103915,148.93121 178.398982,156.576028 195.423571,161.858458 C197.091257,162.375912 179.42485,189.555492 129.886396,198.70373 Z" id="Mulberry" fill="#D34CA3"></path>
    <path d="M294.588488,190.069445 C291.446074,195.376484 261.559128,213.25467 221.045758,216.316533 C167.404115,220.370587 104.034932,204.155955 125.055741,195.904341 C158.150583,182.904341 186.852746,159.554341 221.045757,149.804341 C246.589295,142.486912 274.904279,143.643873 299.979819,152.485812 C299.768646,165.482565 297.904513,178.077466 294.588488,190.069445 Z" id="Grape-Jelly" fill="#9A50A5"></path>
    <path d="M280.072008,224.758554 C254.170842,269.726773 66.3173889,281.003768 38.8747051,250.754698 C24.9054374,235.356883 14.0922541,217.043279 7.45650024,196.835231 C30.5257581,183.65 57.5307498,178.05 83.4874886,181.6 C117.081499,186.2 147.181332,204.95 180.326091,212.25 C207.081499,218.15 235.434244,216.3 261.191316,207 C272.834897,202.763445 284.380102,197.086049 294.589169,190.066867 C291.197488,202.333304 286.286705,213.968929 280.072008,224.758554 Z" id="Indigo" fill="#59569E"></path>
    <path d="M280.287757,224.382775 C254.441043,269.558039 205.77557,300 149.999995,300 C105.93255,300 66.3034741,280.997083 38.860249,250.738731 C43.4143765,252.479795 48.5079076,253.984807 53.1763681,255.3 C79.2828573,262.5 107.386019,262.3 133.342757,254.65 C149.965054,249.75 165.589014,241.95 181.911809,236.05 C213.05918,224.818258 247.341939,220.86284 280.287757,224.382775 L280.287757,224.382775 Z" id="East-Bay" fill="#39477F"></path>
  </g>
</svg>
