<?xml version="1.0" encoding="UTF-8"?>
<svg width="225px" height="333px" viewBox="0 0 225 333" version="1.1" xmlns="http://www.w3.org/2000/svg" xmlns:xlink="http://www.w3.org/1999/xlink">
    <g id="ziggy" stroke="none" stroke-width="1" fill="currentColor" fill-rule="evenodd">
        <path d="M83.825443,90.881852 C68.637517,100.609446 52.301484,108.587764 35.961896,114.911047 C30.245751,117.123148 24.946984,118.967082 20.208174,120.457749 C17.407968,121.338598 15.448476,121.89822 14.471783,122.152401 C11.198398,123.185992 9.022033,123.991926 7.396146,124.751242 C6.225211,125.298089 5.240313,125.855304 4.304958,126.583353 C1.060432,129.108781 -1.101094,132.593676 0.937651,137.964718 C2.602584,142.350957 5.394865,143.676481 8.87595,144.262123 C9.946421,144.442214 11.024975,144.489491 12.252649,144.459109 C14.06858,144.41417 16.399451,144.180266 19.266202,143.769737 L177.043703,121.395868 C121.658452,153.081779 10.92388,216.512019 10.92388,216.512019 C-7.329171,226.96761 -1.45619,243.954861 19.266202,240.987345 L170.993982,219.455418 C154.705373,228.764473 138.580656,239.029862 123.355306,250.10252 C91.101371,273.559241 66.48972,297.982998 52.534374,323.143389 L69.168421,332.357006 C81.528581,310.072608 104.334208,287.441088 134.546128,265.469425 C151.581574,253.080372 169.880771,241.685743 188.183515,231.56481 C194.589862,228.022269 200.533712,224.894844 205.85869,222.215423 C209.029444,220.619963 211.271331,219.536543 212.428383,218.997549 C231.539073,209.192759 226.012339,192.181042 205.052385,195.182577 L46.974713,217.76284 C46.97871,217.765598 213.394707,122.440295 213.394707,122.440295 C231.500184,112.069236 225.987663,94.966967 205.052385,97.964969 L79.280014,115.712984 C79.228534,115.718206 89.222765,109.998858 94.087782,106.882902 C135.506708,80.354824 162.972553,45.957174 169.234445,2.7224033 L150.412217,-2.84217094e-14 C145.060138,36.953037 121.021629,67.058364 83.825443,90.881852 Z" fill-rule="nonzero"></path>
    </g>
</svg>
