<?xml version="1.0" encoding="UTF-8"?>
<svg width="524px" height="524px" viewBox="0 0 524 524" version="1.1" xmlns="http://www.w3.org/2000/svg" xmlns:xlink="http://www.w3.org/1999/xlink">
    <defs>
        <linearGradient x1="50%" y1="0%" x2="50%" y2="100%" id="linearGradient-1">
            <stop stop-color="#FCC397" offset="0%"></stop>
            <stop stop-color="#FC9F95" offset="17.709662%"></stop>
            <stop stop-color="#F77C88" offset="30.0482302%"></stop>
            <stop stop-color="#F25192" offset="42.703683%"></stop>
            <stop stop-color="#D34CA3" offset="56.3317124%"></stop>
            <stop stop-color="#9A50A5" offset="69.1147162%"></stop>
            <stop stop-color="#59569E" offset="83.848852%"></stop>
            <stop stop-color="#39477F" offset="100%"></stop>
        </linearGradient>
    </defs>
    <g id="cloud-logo" stroke="none" stroke-width="1" fill="none" fill-rule="evenodd">
        <circle id="Oval" fill="url(#linearGradient-1)" cx="262" cy="262" r="262"></circle>
        <path d="M233.825443,186.881852 C218.637517,196.609446 202.301484,204.587764 185.961896,210.911047 C180.245751,213.123148 174.946984,214.967082 170.208174,216.457749 C167.407968,217.338598 165.448476,217.89822 164.471783,218.152401 C161.198398,219.185992 159.022033,219.991926 157.396146,220.751242 C156.225211,221.298089 155.240313,221.855304 154.304958,222.583353 C151.060432,225.108781 148.898906,228.593676 150.937651,233.964718 C152.602584,238.350957 155.394865,239.676481 158.87595,240.262123 C159.946421,240.442214 161.024975,240.489491 162.252649,240.459109 C164.06858,240.41417 166.399451,240.180266 169.266202,239.769737 L327.043703,217.395868 C271.658452,249.081779 160.92388,312.512019 160.92388,312.512019 C142.670829,322.96761 148.54381,339.954861 169.266202,336.987345 L320.993982,315.455418 C304.705373,324.764473 288.580656,335.029862 273.355306,346.10252 C241.101371,369.559241 216.48972,393.982998 202.534374,419.143389 L219.168421,428.357006 C231.528581,406.072608 254.334208,383.441088 284.546128,361.469425 C301.581574,349.080372 319.880771,337.685743 338.183515,327.56481 C344.589862,324.022269 350.533712,320.894844 355.85869,318.215423 C359.029444,316.619963 361.271331,315.536543 362.428383,314.997549 C381.539073,305.192759 376.012339,288.181042 355.052385,291.182577 L196.974713,313.76284 C196.97871,313.765598 363.394707,218.440295 363.394707,218.440295 C381.500184,208.069236 375.987663,190.966967 355.052385,193.964969 L229.280014,211.712984 C229.228534,211.718206 239.222765,205.998858 244.087782,202.882902 C285.506708,176.354824 312.972553,141.957174 319.234445,98.7224033 L300.412217,96 C295.060138,132.953037 271.021629,163.058364 233.825443,186.881852 Z" fill="#FFFFFF" fill-rule="nonzero"></path>
        <path d="M233.825443,196.881852 C218.637517,206.609446 202.301484,214.587764 185.961896,220.911047 C180.245751,223.123148 174.946984,224.967082 170.208174,226.457749 C167.407968,227.338598 165.448476,227.89822 164.471783,228.152401 C161.198398,229.185992 159.022033,229.991926 157.396146,230.751242 C156.225211,231.298089 155.240313,231.855304 154.304958,232.583353 C151.060432,235.108781 148.898906,238.593676 150.937651,243.964718 C152.602584,248.350957 155.394865,249.676481 158.87595,250.262123 C159.946421,250.442214 161.024975,250.489491 162.252649,250.459109 C164.06858,250.41417 166.399451,250.180266 169.266202,249.769737 L327.043703,227.395868 C271.658452,259.081779 160.92388,322.512019 160.92388,322.512019 C142.670829,332.96761 148.54381,349.954861 169.266202,346.987345 L320.993982,325.455418 C304.705373,334.764473 288.580656,345.029862 273.355306,356.10252 C241.101371,379.559241 216.48972,403.982998 202.534374,429.143389 L219.168421,438.357006 C231.528581,416.072608 254.334208,393.441088 284.546128,371.469425 C301.581574,359.080372 319.880771,347.685743 338.183515,337.56481 C344.589862,334.022269 350.533712,330.894844 355.85869,328.215423 C359.029444,326.619963 361.271331,325.536543 362.428383,324.997549 C381.539073,315.192759 376.012339,298.181042 355.052385,301.182577 L196.974713,323.76284 C196.97871,323.765598 363.394707,228.440295 363.394707,228.440295 C381.500184,218.069236 375.987663,200.966967 355.052385,203.964969 L229.280014,221.712984 C229.228534,221.718206 239.222765,215.998858 244.087782,212.882902 C285.506708,186.354824 312.972553,151.957174 319.234445,108.722403 L300.412217,106 C295.060138,142.953037 271.021629,173.058364 233.825443,196.881852 Z" fill="#FFFFFF" fill-rule="nonzero" opacity="0.249999985"></path>
    </g>
</svg>
