<?xml version="1.0" encoding="UTF-8"?>
<svg width="30px" height="30px" viewBox="0 0 30 30" version="1.1" xmlns="http://www.w3.org/2000/svg" xmlns:xlink="http://www.w3.org/1999/xlink">
  <g>
      <path d="M0.00107142857,18.5 C0.00107142857,20.981 6.72964286,23 15.0010714,23 C23.265,23 29.9882143,20.984 30,18.506 L30,18.495 C29.9989286,18.327 30,14.912 30,14.912 C26.9175,17.021 20.9453571,18 15.0010714,18 C9.05571429,18 3.08142857,17.021 0,14.91 C0,14.91 0.00107142857,18.331 0.00107142857,18.5 Z" fill="#F25192"></path>
      <path d="M29.9989286,21.912 C26.9165387,24.021 20.9446091,25 15.0005357,25 C9.05539088,25 3.08131852,24.021 0,21.91 L0,26 L0,26 C0.830327488,28.25 7.28009714,30 15.0005357,30 C22.7209743,30 29.1696725,28.25 30,26 L30,26 L29.9989286,21.912 Z" fill="#D34CA3"></path>
      <path d="M0.00107142857,11.5 C0.00107142857,13.981 6.72964286,16 15.0010714,16 C23.265,16 29.9882143,13.984 30,11.506 L30,11.495 C29.9989286,11.327 30,7.912 30,7.912 C26.9175,10.021 20.9453571,11 15.0010714,11 C9.05571429,11 3.08142857,10.021 0,7.91 C0,7.91 0.00107142857,11.331 0.00107142857,11.5 Z" fill="#F77C88"></path>
      <ellipse fill="#FC9F95" cx="15.0010345" cy="4.5" rx="15" ry="4.5"></ellipse>
  </g>
</svg>
