
<svg width="25" height="31" xmlns="http://www.w3.org/2000/svg" xmlns:xlink="http://www.w3.org/1999/xlink">
  <g fill="none" fill-rule="evenodd">
    <defs>
      <linearGradient x1="50%" y1="0%" x2="50%" y2="100%" id="a">
        <stop stop-color="#F25192" offset="0%"/>
        <stop stop-color="#D351F2" offset="100%"/>
      </linearGradient>
      <linearGradient x1="0%" y1="0%" x2="102%" y2="101%" id="c">
        <stop stop-color="#3023AE" offset="0%"/>
        <stop stop-color="#C86DD7" offset="100%"/>
      </linearGradient>
      <path d="M0 31V1h8.932c.0464-.018.1029-.018.1693 0H16.25l-.0007 4.8803L16.25 9.4H24v5.7348c.0109.0006.0109 3.133 0 9.3975V31H0zM24 8h-6V1l6 7z" id="b"/>
      <linearGradient x1="50%" y1="0%" x2="50%" y2="100%" id="f">
        <stop stop-color="#FFF" offset="35.6027%"/>
        <stop stop-color="#E3E3E3" offset="97.3633%"/>
      </linearGradient>
      <path d="M8 12.225h3.45l.125 1.475c.3-.4.7125-.7833 1.2375-1.15.525-.3667 1.2042-.55 2.0375-.55.3167 0 .5875.0167.8125.05.225.0333.4458.0917.6625.175L15.75 15.4c-.3667-.1167-.8-.175-1.3-.175-.85 0-1.5375.2542-2.0625.7625-.525.5083-.7875 1.2292-.7875 2.1625v5.8H8V12.225z" id="e"/>
      <filter x="-27%" y="-10.5%" width="154.1%" height="137.7%" filterUnits="objectBoundingBox" id="d">
        <feMorphology radius=".25" operator="dilate" in="SourceAlpha" result="shadowSpreadOuter1"/>
        <feOffset dy="1" in="shadowSpreadOuter1" result="shadowOffsetOuter1"/>
        <feGaussianBlur stdDeviation=".5" in="shadowOffsetOuter1" result="shadowBlurOuter1"/>
        <feComposite in="shadowBlurOuter1" in2="SourceAlpha" operator="out" result="shadowBlurOuter1"/>
        <feColorMatrix values="0 0 0 0 0.349019608 0 0 0 0 0.337254902 0 0 0 0 0.619607843 0 0 0 1 0" in="shadowBlurOuter1"/>
      </filter>
    </defs>
    <g fill-rule="evenodd">
      <use fill="url(#a)" xlink:href="#b"/>
      <use fill="url(#c)" xlink:href="#b"/>
    </g>
    <use fill="#000" filter="url(#d)" xlink:href="#e"/>
    <use fill="#FFF" xlink:href="#e"/>
    <use fill="url(#f)" xlink:href="#e"/>
    <path stroke-opacity=".1596" stroke="#000" stroke-width=".25" d="M11.6734 13.3809c.2832-.3232.6391-.6342 1.0675-.9334.5477-.3825 1.2517-.5725 2.1091-.5725.3224 0 .5992.017.8308.0513.2341.0347.4639.0954.689.182l.0782.139-.575 3.175-.1609.0968c-.3535-.1125-.7742-.1691-1.2621-.1691-.8188 0-1.475.2426-1.9755.7273-.4989.483-.7495 1.1712-.7495 2.0727v5.8l-.125.125H8l-.125-.125V12.225L8 12.1h3.45l.1246.1144.0988 1.1665z"/>
  </g>
</svg>
