<?xml version="1.0" encoding="UTF-8"?>
<svg width="30px" height="30px" viewBox="0 0 30 30" version="1.1" xmlns="http://www.w3.org/2000/svg" xmlns:xlink="http://www.w3.org/1999/xlink">
  <g>
    <polygon fill="#FCC397" points="3 1.66533454e-15 3 1.90908695 19.25 1.66533454e-15"></polygon>
    <path d="M19.25,6.14861919 C19.0978206,6.15814119 18.9920231,6.16525427 18.9326077,6.16995845 C13.6172459,6.59079858 7.65155407,6.81002114 3.28535168,6.91513361 C3.24005552,6.91622408 3.1449383,6.91783225 3,6.91995814 L3,1.10477815 C3.07645531,1.12017402 3.13478106,1.13153022 3.17497725,1.13884678 C4.83770979,1.44149917 6.55935061,1.453766 8.21131622,1.14651435 C9.43357726,0.920846772 10.7707752,0.44830146 11.931923,-1.09461051e-15 C11.9784475,-0.0179623938 12.0348986,-0.0179623938 12.1012763,-1.09461051e-15 L19.2465697,-2.63504496e-15 L19.25,6.14861919 Z" fill="#FC9F95"></path>
    <path d="M27,12 C26.8438613,12.0324347 26.7324426,12.0511939 26.6657437,12.0562775 C19.7274967,12.5850917 9.93727172,13.1643748 3.2534531,12.9567574 C3.19238391,12.9548604 3.10789954,12.9518664 3,12.9477754 L3,4.03083158 C3.12497522,4.00623899 3.21442062,3.98802666 3.2683362,3.97619457 C4.78037947,3.64436797 6.32284385,3.47522079 7.84516396,3.4919245 C11.5171824,3.52965978 15.1325633,4.535526 18.7833572,4.85062411 C18.8663411,4.8577864 19.0218887,4.8677049 19.25,4.88037961 L19.25,8.85505652 L27,8.85505652 L27,12 Z" fill="#F77C88"></path>
    <polygon fill="#F77C88" points="27 7 21 7 21 0"></polygon>
    <path d="M27,16.7458451 C26.8640529,16.7557732 26.7675088,16.7631571 26.7103677,16.767997 C24.8697169,16.9239011 22.8066327,17.0215315 20.610426,16.995937 C14.8640951,16.9289999 8.36724803,16.4278537 3.3550401,15.9452725 C3.29303054,15.9393022 3.17468384,15.930354 3,15.918428 L3,13.3646376 C3.16479525,13.3648369 3.27874117,13.3644943 3.34183775,13.3636099 C3.76066065,13.3577392 4.17894041,13.3325452 4.59509295,13.2873264 C7.11766824,13.0148201 9.5137081,12.084311 11.8498803,11.0939834 C14.1859192,10.1036559 16.5087578,9.04021686 18.9779989,8.4686184 C19.0347895,8.45550711 19.1201122,8.43263418 19.2339668,8.39999962 L27,8.39999962 L27,16.7458451 Z" fill="#F25192"></path>
    <path d="M3.31899394,21.9380604 C3.26012789,21.9355799 3.15379658,21.9317212 3,21.9264841 L3,11.1089269 C3.11897029,11.0955795 3.20702494,11.0859381 3.26416397,11.0800026 C4.27597701,10.9748973 5.29753451,10.9727667 6.30979728,11.0770961 C9.11085166,11.3692145 11.7857157,12.4542255 14.3744138,13.6226989 C16.555154,14.6071378 18.7220651,15.6705877 20.9857798,16.4053349 C21.207577,16.4773908 18.8584943,20.2580978 12.2711963,21.5307601 C9.69497445,22.0284082 6.32447862,22.0647018 3.31899394,21.9380604 Z" fill="#D34CA3"></path>
    <path d="M27,23.5323066 C26.9531767,23.5405075 26.9198432,23.546632 26.8999996,23.5506799 C26.09316,23.7152688 25.3135334,23.841058 24.4199254,23.9110843 C17.229914,24.4744781 8.73612487,22.2210419 11.5537161,21.0742423 C15.9896698,19.2676021 19.8367991,16.0225984 24.4199254,14.6676183 C25.2179333,14.4306053 26.0361267,14.2575715 26.8643032,14.1471283 C26.9891175,14.1304834 27.035374,14.1304834 27.0030725,14.1471283 L27,23.5323066 Z" fill="#9A50A5"></path>
    <path d="M27,30 L3,30 L3,19 C4.36814965,19.0001043 5.388837,19.0480681 6.06206205,19.1438912 C10.5080033,19.7774632 14.491537,22.359958 18.8781884,23.3654093 C20.6555196,23.7733226 23.3624921,23.7859016 26.9991059,23.4031465 L27,30 Z" fill="#59569E"></path>
  </g>
</svg>
