<?xml version="1.0" encoding="UTF-8"?>
<svg width="25px" height="31px" viewBox="0 0 25 31" version="1.1" xmlns="http://www.w3.org/2000/svg" xmlns:xlink="http://www.w3.org/1999/xlink">
    <!-- Generator: Sketch 47.1 (45422) - http://www.bohemiancoding.com/sketch -->
    <title>Untitled 5</title>
    <desc>Created with Sketch.</desc>
    <defs></defs>
    <g id="Page-1" stroke="none" stroke-width="1" fill="none" fill-rule="evenodd">
        <g id="synced-realm-icon-copy-15">
            <path d="M0,31 L0,1 L8.931923,1 C8.9784475,0.982037606 9.0348986,0.982037606 9.1012763,1 L16.25,1 L16.2465699,1.00040297 L16.2492924,5.88034029 L16.25,5.88037961 L16.25,9.39999962 L24,9.39999962 L24,15.1348199 C24.0162855,15.1356891 24.0173097,15.1397919 24.0030725,15.1471283 L24,24.5323066 L23.9991234,24.5324602 L24,31 L0,31 Z M24,8 L18,8 L18,1 L24,8 Z" id="Combined-Shape" fill="#59569E" fill-rule="nonzero"></path>
            <path d="M8,12.225 L11.45,12.225 L11.575,13.7 C11.8750015,13.299998 12.2874974,12.9166685 12.8125,12.55 C13.3375026,12.1833315 14.0166625,12 14.85,12 C15.1666683,12 15.4374989,12.0166665 15.6625,12.05 C15.8875011,12.0833335 16.1083323,12.1416663 16.325,12.225 L15.75,15.4 C15.3833315,15.2833328 14.9500025,15.225 14.45,15.225 C13.5999958,15.225 12.9125026,15.4791641 12.3875,15.9875 C11.8624974,16.4958359 11.6,17.216662 11.6,18.15 L11.6,23.95 L8,23.95 L8,12.225 Z" id="r" fill="#FFFFFF"></path>
        </g>
    </g>
</svg>