<?xml version="1.0" encoding="UTF-8"?>
<svg viewBox="0 0 256 228" version="1.1" xmlns="http://www.w3.org/2000/svg" xmlns:xlink="http://www.w3.org/1999/xlink">
    <g id="xamarin" stroke="none" fill-rule="nonzero" fill="currentColor">
        <path d="M73.866,0 C66.952,0.015 60.184,3.94 56.704,9.927 L2.57,103.963 C-0.857,109.966 -0.857,117.813 2.57,123.816 L56.704,217.853 C60.184,223.84 66.952,227.766 73.866,227.78 L182.134,227.78 C189.048,227.765 195.816,223.84 199.296,217.853 L253.43,123.816 C256.857,117.813 256.856,109.966 253.43,103.963 L199.296,9.927 C195.816,3.939 189.048,0.014 182.134,0 L73.866,0 Z M74.849,55.013 C74.998,54.998 75.154,54.998 75.303,55.013 L93.977,55.013 C94.8203919,55.0403626 95.5910138,55.4977543 96.019,56.225 L127.698,112.677 C127.858,112.957 127.96,113.267 127.998,113.587 C128.038,113.267 128.14,112.957 128.3,112.677 L159.903,56.225 C160.346023,55.4764135 161.150148,55.0160451 162.02,55.013 L180.695,55.013 C182.348,55.027 183.587,57.11 182.812,58.574 L151.889,113.89 L182.812,169.13 C183.66,170.602 182.392,172.781 180.695,172.767 L162.02,172.767 C161.134436,172.74831 160.326677,172.256863 159.903,171.479 L128.3,115.026 C128.14,114.747 128.038,114.436 127.999,114.117 C127.960078,114.437309 127.857755,114.746659 127.698,115.027 L96.018,171.479 C95.6084816,172.234091 94.8358094,172.721935 93.978,172.767 L75.302,172.767 C73.605,172.782 72.337,170.602 73.185,169.13 L104.108,113.89 L73.185,58.574 C72.444,57.238 73.348,55.298 74.848,55.013 L74.849,55.013 Z" id="Shape"></path>
    </g>
</svg>
